<svg xmlns="http://www.w3.org/2000/svg" viewBox="0 0 150 173.68"><defs><style>.cls-1{isolation:isolate;}.cls-2{mix-blend-mode:soft-light;}.cls-3{fill:#fef1a6;}.cls-4{fill:#ffd400;}.cls-5{fill:#ffb300;}.cls-6,.cls-8{opacity:0;}.cls-7,.cls-8{fill:#fff;}.cls-9{fill:#feb269;}.cls-10{mix-blend-mode:multiply;}.cls-11{fill:#d38540;}.cls-12,.cls-14{fill:none;}.cls-13{fill:#832f16;}.cls-14{stroke:#000;stroke-miterlimit:10;stroke-width:0.84px;}</style></defs><title>pollote</title><g class="cls-1"><g id="OBJECT"><g class="cls-2"><path class="cls-3" d="M91.47,160.64a1.28,1.28,0,0,0-1.4-.45,2.57,2.57,0,0,1-1.67-.09l0,0a2.46,2.46,0,0,0,2.6.78,1.27,1.27,0,0,1,.67,0A1.7,1.7,0,0,1,91.47,160.64Z"/></g><g class="cls-2"><path class="cls-3" d="M92.41,159.91a1.24,1.24,0,0,0,.74.47,2.58,2.58,0,0,0-.79-.52Z"/></g><path class="cls-4" d="M113.17,139.45a38.18,38.18,0,0,1-5.86,3.64c-.39.21-.81.39-1.18.58,5.36-7.52,5.4-19-1.33-25-.13,6.82-8.46,9.91-11.62,5.14-4.07-6.16-.87-8.09-2.93-16-2.7-10.39-11.18-13.69-20.59-12,7.06,2.7,4.44,12.8.06,19.54a13.13,13.13,0,0,1-13,5.44c-2.93-.64-4.86-.24-2.76-4.79-8.17,4.24-12,4.6-13.07,9.88-1.06,5,.25,11.85,3,15.84A40.36,40.36,0,0,0,47.44,146a64.21,64.21,0,0,1-8-5c-.14-.1-.29-.21-.43-.33-2.23-1.83-4.89-6.67-6-10.37a41.72,41.72,0,0,1-2-15.81c.33-4.47,1.7-10.35,4.46-14,0,0,5.1,4.3,11.45,4.16,7.88-.17,13.16-5.14,16.86-11.43,1.66-2.83,1.78-7,1.33-10.23s-2.6-5.23-4.68-7.48c-2.6-2.59-6.44-8-4.49-13.5,4.49,2.76,9.35,3.63,14.19.35,4.51-3.12,5.2-6.07,4.51-11.1,8.81,1,10.12,8.44,8.81,15.21a9.4,9.4,0,0,0,3.39,9.6c4.51,3.2,12.66,1.56,14.82-3.63,1.29,3.63,2.57,8.5.7,12.92-2.07,4.89-3.82,6.3-5.4,11.24-1,3.62-.12,8.69,3.12,11.43,4,3.39,10.41,5.36,17.29-1.31C123.52,116.16,120.3,130.23,113.17,139.45Z"/><path class="cls-5" d="M113.23,139.51c7.13-9.23,10.35-23.3,4.15-32.71-6.87,6.67-13.23,4.7-17.28,1.31-3.25-2.74-4.16-7.81-3.12-11.43,1.58-4.94,3.32-6.36,5.4-11.24,1.87-4.43.58-9.29-.71-12.93-2.16,5.2-10.3,6.84-14.81,3.64a9.36,9.36,0,0,1-3.39-9.6c1.31-6.77,0-14.17-8.81-15.21.69,5,0,8-4.51,11.1-4.84,3.28-9.7,2.41-14.19-.36C54,67.59,57.85,73,60.45,75.59c2.07,2.24,4.22,4.22,4.67,7.48s.34,7.4-1.33,10.22c-3.7,6.3-9,11.27-16.85,11.43-6.36.15-11.45-4.15-11.45-4.15-2.76,3.63-4.13,9.52-4.47,14a42,42,0,0,0,2,15.82c1.12,3.7,3.78,8.54,6,10.37a61.51,61.51,0,0,1-11.55-10.87c-8.9-11-13.26-36.53-2.64-51.18C22.69,87,29.38,94.6,37.09,93.59c10.33-1.35,11.66-13.78,7.63-20.87S35.7,62,36.07,50.59c.77-9.6,7.86-16.17,15-18.43C49,47.33,66,50.32,74.2,40.74c4.22-4.9,6.26-9.31,5.24-17.45-.58-4.74-5.57-12.49-9.6-15,14.92-3,34.89,10.52,32.35,31.26-1.24,9.6-10.12,16.14-4.42,22.71,6.56,6.59,16.19-5,15.67-11.64,6.46,5.07,11.94,18.31,4.17,28.66-3.74,5-13.13,11.51-9.1,18.51,4.93,8.61,17.33,2.79,16.71-7.33C134,105,129.14,127.6,113.23,139.51Z"/><g class="cls-6"><path class="cls-7" d="M36.74,64.92a8.78,8.78,0,0,1-4.68-1.36,9.93,9.93,0,0,1-3.48-3.87,11.88,11.88,0,0,1-1.3-5.52,11.62,11.62,0,0,1,1.26-5.4A9.67,9.67,0,0,1,32,45a8.71,8.71,0,0,1,4.65-1.39,9.35,9.35,0,0,1,4.88,1.37,9.58,9.58,0,0,1,3.56,3.82,12.35,12.35,0,0,1,0,10.93,9.64,9.64,0,0,1-3.55,3.85A9.1,9.1,0,0,1,36.74,64.92Zm.13-19a4.17,4.17,0,0,0-3.51,1.8c-1,1.27-1.42,3.42-1.42,6.4,0,3.23.48,5.46,1.44,6.64a4.35,4.35,0,0,0,5.91.94A5.3,5.3,0,0,0,41,59.23a13.63,13.63,0,0,0,.7-4.83,15.92,15.92,0,0,0-.65-5.12,5.29,5.29,0,0,0-1.74-2.53A4.13,4.13,0,0,0,36.87,46Z"/></g><path d="M36.67,44.26a8.7,8.7,0,0,1,4.52,1.27,8.91,8.91,0,0,1,3.3,3.55,11.65,11.65,0,0,1,0,10.28,9,9,0,0,1-3.29,3.58,8.43,8.43,0,0,1-4.45,1.28A8,8,0,0,1,32.43,63a9.14,9.14,0,0,1-3.23-3.6A11.09,11.09,0,0,1,28,54.17a10.9,10.9,0,0,1,1.18-5.08,9,9,0,0,1,3.24-3.54A7.89,7.89,0,0,1,36.67,44.26Zm.2,1a4.83,4.83,0,0,0-4.07,2.09q-1.57,2.09-1.57,6.81c0,3.41.54,5.77,1.6,7.08a5.07,5.07,0,0,0,6.87,1.07,6,6,0,0,0,2-2.83,14.55,14.55,0,0,0,.74-5.08,16.2,16.2,0,0,0-.7-5.36,5.83,5.83,0,0,0-2-2.86A4.87,4.87,0,0,0,36.87,45.26Z"/><path class="cls-8" d="M47.22,64V61.67h2.27c.51,0,.64-.11.64-.11a.71.71,0,0,0,.1-.46V46.2c0-.12,0-.19,0-.2s-.12-.07-.33-.07H47.22V43.56H57.48v2.37H54.66a.39.39,0,0,0-.22,0h0a.67.67,0,0,0-.06.36V61.38a.58.58,0,0,0,0,.22h0a3.08,3.08,0,0,0,.79.07h2.68a3.89,3.89,0,0,0,3-1.21,9,9,0,0,0,1.79-4.58l.11-.58H65L64.48,64Z"/><path d="M47.93,44.26h8.85v1H54.66a1,1,0,0,0-.74.26,1.24,1.24,0,0,0-.24.84V61.38a.91.91,0,0,0,.3.77,2.27,2.27,0,0,0,1.22.22h2.68A4.62,4.62,0,0,0,61.38,61a9.76,9.76,0,0,0,2-5h.9l-.44,7.34H47.93v-1h1.56a1.63,1.63,0,0,0,1.12-.3,1.26,1.26,0,0,0,.32-1V46.2a1,1,0,0,0-.27-.73,1.18,1.18,0,0,0-.8-.24H47.93Z"/><path class="cls-8" d="M64.85,64V61.67h2.26c.51,0,.64-.11.64-.11a.71.71,0,0,0,.1-.46V46.2c0-.12,0-.19,0-.2s-.12-.07-.33-.07H64.85V43.56H75.1v2.37H72.28a.39.39,0,0,0-.22,0h0a.67.67,0,0,0-.06.36V61.38a.5.5,0,0,0,0,.22h0a2.84,2.84,0,0,0,.78.07H75.5a3.88,3.88,0,0,0,3-1.21,9,9,0,0,0,1.8-4.58l.1-.58h2.24L82.1,64Z"/><path d="M65.55,44.26H74.4v1H72.28a1,1,0,0,0-.74.26,1.24,1.24,0,0,0-.24.84V61.38a.91.91,0,0,0,.3.77,2.27,2.27,0,0,0,1.22.22H75.5A4.62,4.62,0,0,0,79,61a9.58,9.58,0,0,0,2-5h.9l-.44,7.34H65.55v-1h1.56a1.63,1.63,0,0,0,1.12-.3,1.26,1.26,0,0,0,.32-1V46.2a1,1,0,0,0-.27-.73,1.16,1.16,0,0,0-.8-.24H65.55Z"/><g class="cls-6"><path class="cls-7" d="M92.54,64.92a8.73,8.73,0,0,1-4.68-1.36,9.87,9.87,0,0,1-3.49-3.87,11.85,11.85,0,0,1-1.3-5.52,11.5,11.5,0,0,1,1.27-5.4A9.67,9.67,0,0,1,87.82,45a8.66,8.66,0,0,1,4.64-1.39,9.33,9.33,0,0,1,4.88,1.37,9.54,9.54,0,0,1,3.56,3.83,12.29,12.29,0,0,1,0,10.92,9.71,9.71,0,0,1-3.55,3.85A9.15,9.15,0,0,1,92.54,64.92Zm.13-19a4.17,4.17,0,0,0-3.52,1.8c-.94,1.27-1.42,3.42-1.42,6.4,0,3.23.48,5.46,1.44,6.64a4.24,4.24,0,0,0,3.42,1.7,4.15,4.15,0,0,0,2.49-.76,5.26,5.26,0,0,0,1.75-2.51,13.89,13.89,0,0,0,.69-4.83,15.88,15.88,0,0,0-.65-5.12,5.22,5.22,0,0,0-1.74-2.53A4.1,4.1,0,0,0,92.67,46Z"/></g><path d="M92.46,44.26A8.68,8.68,0,0,1,97,45.53a8.77,8.77,0,0,1,3.3,3.55,10.84,10.84,0,0,1,1.2,5.13,11,11,0,0,1-1.2,5.15A9,9,0,0,1,97,62.94a8.43,8.43,0,0,1-4.44,1.28A8,8,0,0,1,88.23,63,9.07,9.07,0,0,1,85,59.36a11,11,0,0,1-1.22-5.19A10.78,10.78,0,0,1,85,49.09a8.86,8.86,0,0,1,3.23-3.54A7.91,7.91,0,0,1,92.46,44.26Zm.21,1a4.84,4.84,0,0,0-4.08,2.09Q87,49.44,87,54.16q0,5.12,1.6,7.08a5.05,5.05,0,0,0,6.86,1.07,6,6,0,0,0,2-2.83,14.3,14.3,0,0,0,.75-5.08,16.47,16.47,0,0,0-.7-5.36,5.91,5.91,0,0,0-2-2.86A4.86,4.86,0,0,0,92.67,45.26Z"/><path class="cls-8" d="M106.64,64V61.67h2.9a.41.41,0,0,0,.19,0V46.11s0-.17,0-.21a1.05,1.05,0,0,0-.5-.08,3,3,0,0,0-2.55,1.47,10.1,10.1,0,0,0-1.36,4.28l-.09.6H102.9l.49-8.61h16.82l.45,8.61h-2.24l-.08-.6c-.8-5.75-3.14-5.75-3.91-5.75a1.36,1.36,0,0,0-.56.07,1.26,1.26,0,0,0,0,.33V61.47a.32.32,0,0,0,0,.15h0a1.37,1.37,0,0,0,.44.05h2.62V64Z"/><path d="M104.06,44.26h15.49l.37,7.21H119c-.58-4.24-2.12-6.36-4.6-6.36a1.56,1.56,0,0,0-1,.26,1.14,1.14,0,0,0-.28.85V61.47a.82.82,0,0,0,.28.68,1.38,1.38,0,0,0,.89.22h1.92v1h-8.86v-1h2.19a.93.93,0,0,0,.67-.22.75.75,0,0,0,.23-.58V46.11a.89.89,0,0,0-.3-.74,1.42,1.42,0,0,0-1-.26,3.7,3.7,0,0,0-3.12,1.77,10.88,10.88,0,0,0-1.49,4.59h-.94Z"/><path d="M5.85,43H18.22q4.19,0,6.39,1.89a6.26,6.26,0,0,1,2.21,5,5.62,5.62,0,0,1-2,4.68,10.72,10.72,0,0,1-6.89,2.22H13.43v8.56a1.38,1.38,0,0,0,.36,1.07,1.88,1.88,0,0,0,1.27.4H17.9v1.27h-12V66.79H8.37a1.72,1.72,0,0,0,1.1-.29,1,1,0,0,0,.35-.81v-20a1.3,1.3,0,0,0-.44-1.1,2.89,2.89,0,0,0-1.67-.34H5.85Zm7.58,12.52h3.4q3.24,0,4.66-1.35c1-.89,1.43-2.38,1.43-4.44a7,7,0,0,0-.64-3.34,4,4,0,0,0-1.89-1.72,10.8,10.8,0,0,0-4.08-.56,4.82,4.82,0,0,0-2.38.36,1.43,1.43,0,0,0-.5,1.24Z"/><path d="M122.34,43.58h19.87l.47,8.46h-1.13c-.45-2.66-1.17-4.53-2.14-5.59a5,5,0,0,0-3.82-1.59h-4.91a1.18,1.18,0,0,0-.9.32,1.39,1.39,0,0,0-.3,1v8.93h2.15a3.53,3.53,0,0,0,2.79-1.23,6,6,0,0,0,1.16-3.8h1.17V61.67h-1.17a6.62,6.62,0,0,0-1.17-4.13,3.75,3.75,0,0,0-3-1.24h-2v10a1,1,0,0,0,.36.83,1.94,1.94,0,0,0,1.21.29h3.88q6.31,0,7.28-8.07h1.22L143,68.65H122.34V67.38h1.72a2.13,2.13,0,0,0,1.4-.35,1.24,1.24,0,0,0,.41-1V46.16a1.24,1.24,0,0,0-.36-1,1.6,1.6,0,0,0-1.12-.32h-2Z"/><path class="cls-9" d="M119.53,101.18l-5.23-4.57c-3.46-3-6.58-10.59-7.76-13.73a5.44,5.44,0,0,0-7.86-2.79l-.27.17h0a5.46,5.46,0,0,0-2.33,4A11.24,11.24,0,0,0,94,84.1a18.07,18.07,0,0,0-18.62-3.55A17.72,17.72,0,0,0,56.92,84.1a11.58,11.58,0,0,0-2.05.21,5.43,5.43,0,0,0-2.33-4h0l-.27-.17a5.43,5.43,0,0,0-7.85,2.79c-1.19,3.14-4.31,10.7-7.77,13.73l-5.23,4.57.63-.08a31.27,31.27,0,0,0,13.87-5.27l-.5,4a10.93,10.93,0,0,0,6.21,11,40.71,40.71,0,0,0,2.45,7.76l-.19-.14h0a8.37,8.37,0,0,0-7.68-1.35h0a8.36,8.36,0,0,0-5.45,5.58h0a18.23,18.23,0,0,0,3.39,16.78l10,12.16a7,7,0,0,1,1.28,2.34,7.24,7.24,0,0,1,.32,2.36l-.11,3.14a1.9,1.9,0,0,0,3.37.83h0a1.91,1.91,0,0,1,2-.65A1.9,1.9,0,0,0,63.3,157l-1.93-2.49a7.17,7.17,0,0,1-1.11-2.1h0a7,7,0,0,1-.34-2.65l1-15.4A11.06,11.06,0,0,1,64.39,133l6.44,5.77a7,7,0,0,0,9.29,0L86.56,133c.33-.29.65-.6,1-.9a1,1,0,0,0,0,.3,1.52,1.52,0,0,0,.55,1.14,1.29,1.29,0,0,0,.84.34,1.24,1.24,0,0,0,.84-.34,1.85,1.85,0,0,0,.21-.33l0,0,0,.9,1,15.7a7,7,0,0,1-.34,2.65h0a7.17,7.17,0,0,1-1.11,2.1L87.65,157a1.9,1.9,0,0,0,2.25,2.65,1.91,1.91,0,0,1,2,.65h0a1.9,1.9,0,0,0,3.37-.83l-.11-3.14a7.25,7.25,0,0,1,.33-2.36,7,7,0,0,1,1.27-2.34l10-12.16a18.26,18.26,0,0,0,3.4-16.78h0a8.37,8.37,0,0,0-13.14-4.23h0l-.18.14a41.41,41.41,0,0,0,2.44-7.76,10.92,10.92,0,0,0,6.21-11l-.5-4a31.25,31.25,0,0,0,13.87,5.26ZM90.14,130.4a1.15,1.15,0,0,0-1,.09l-.13.09c.48-.5.94-1,1.39-1.54C90.28,129.49,90.21,130,90.14,130.4Z"/><g class="cls-10"><path class="cls-11" d="M98,87.4a.64.64,0,0,1-.2.14,6,6,0,0,1-.93.32,17.18,17.18,0,0,1,2.22,4.25,29.27,29.27,0,0,1,1.47,13.51l-.33,2.65c-.08.57-.16,1.13-.26,1.69a6,6,0,0,1,1.25-.3c.07-.41.13-.82.18-1.24l.34-2.65a30.54,30.54,0,0,0-1.53-14.06A18.46,18.46,0,0,0,98,87.4Z"/></g><g class="cls-10"><path class="cls-11" d="M97.44,90s3.74,29.87-33,42.06l5.15,5.49,3.55,2.93,4.83-.55L83,136.43l4.09-4,3.8-4.28,1.45-4.87,3-3.38,1.49-1.61,1.45-3.88,2.12-7.83-.18-6.07L100,95.07l-2-5.23Z"/></g><g class="cls-10"><path class="cls-11" d="M95.31,159.44l-.11-3.14a7.25,7.25,0,0,1,.33-2.36h0a7,7,0,0,1,1.27-2.34l10-12.16a18.26,18.26,0,0,0,3.4-16.78h0a8.37,8.37,0,0,0-2.83-4.17c0,.05.19,15.68-8.16,22-2.62,2-4.57,10.17-6,20.49A1.89,1.89,0,0,0,95.31,159.44Z"/></g><g class="cls-10"><path class="cls-11" d="M54.15,151.6a7,7,0,0,1,1.28,2.34h0a7.24,7.24,0,0,1,.32,2.36l-.11,3.14a1.9,1.9,0,0,0,3.37.83h0a1.91,1.91,0,0,1,2-.65A1.9,1.9,0,0,0,63.3,157l-1.93-2.49a7.17,7.17,0,0,1-1.11-2.1h0a7,7,0,0,1-.34-2.65l1-15.7a18.37,18.37,0,0,0-.13-3.64l-.56-1.78h0a12.76,12.76,0,0,1-17.85,6L41.21,134l1.55,3.51a18.58,18.58,0,0,0,1.39,1.94Z"/></g><g class="cls-2"><path class="cls-3" d="M41.83,134.33l.57.32.28.15A17.61,17.61,0,0,1,41.55,128a.6.6,0,0,0-.57-.62h0a.57.57,0,0,0-.36.13A17.54,17.54,0,0,0,41.83,134.33Z"/></g><g class="cls-2"><path class="cls-3" d="M90.69,130.82a1,1,0,0,1,.22.69,2.37,2.37,0,0,1-.34,1c0,.48,0,1,0,1.45l1,15.7a7.71,7.71,0,0,1-.2,2.3l1,.33a7.7,7.7,0,0,0,.12-1.92l-1-15.7a17.62,17.62,0,0,1,6.81-15.09,7.76,7.76,0,0,1,7.14-1.25,7.86,7.86,0,0,1,1.78.84,7.76,7.76,0,0,0-9.87-.3c-.38.29-.75.61-1.11.93a40.5,40.5,0,0,1-5,8.14A17.12,17.12,0,0,0,90.69,130.82Z"/></g><g class="cls-2"><path class="cls-3" d="M89.11,158,91,155.56a7.64,7.64,0,0,0,1-1.73l2.21.72c0-.13.05-.26.07-.38l-3.23-1a8.44,8.44,0,0,1-.67,1.26l-.32.45h0l-1.89,2.44a1.33,1.33,0,0,0,1,1.81A1.32,1.32,0,0,1,89.11,158Z"/></g><g class="cls-2"><path class="cls-3" d="M90.69,130.82a16.38,16.38,0,0,0-.12,1.72,2.37,2.37,0,0,0,.34-1A1,1,0,0,0,90.69,130.82Z"/></g><g class="cls-2"><path class="cls-3" d="M94.9,121.28c-.12.14-.24.27-.35.41l-.07.09q-.45.57-.87,1.17s-.07.1-.1.16l-.21.31a17.72,17.72,0,0,0-2,4.55,40.5,40.5,0,0,0,5-8.14A17.52,17.52,0,0,0,94.9,121.28Z"/></g><g class="cls-2"><path class="cls-3" d="M94.94,84.15l.22,0a18.27,18.27,0,0,0-1.68-1.34A16.56,16.56,0,0,1,94.94,84.15Z"/></g><g class="cls-2"><path class="cls-3" d="M107.09,82.67c1.17,3.08,4.24,10.55,7.6,13.49L119,99.9l0-.15-3.3-2.88c-3.36-2.94-6.43-10.41-7.6-13.48a6.08,6.08,0,0,0-2.55-3.07A6.08,6.08,0,0,1,107.09,82.67Z"/></g><g class="cls-2"><path class="cls-3" d="M95.47,84.7c0-.16,0-.31,0-.46h-.26l-.07-.06-.22,0C95.12,84.33,95.3,84.51,95.47,84.7Z"/></g><g class="cls-2"><path class="cls-3" d="M99,80.59l-.24.16a4.7,4.7,0,0,0-.93.85l0,0-.11.14a1.13,1.13,0,0,1-.1.13,4.92,4.92,0,0,0-.91,2.54,9.69,9.69,0,0,1,1.08.34.66.66,0,0,1,0-.2l-.06,0a4.9,4.9,0,0,1,2-3.11l.24-.15a4.69,4.69,0,0,1,4-.43,5.43,5.43,0,0,1,.88.41A5,5,0,0,0,103,80.17,4.69,4.69,0,0,0,99,80.59Z"/></g><g class="cls-2"><path class="cls-3" d="M96.67,85.17a.6.6,0,0,1-.31.58c.21.27.42.56.62.85l.22-.09.11,0h0a.6.6,0,0,0,.31-.57.41.41,0,0,0,0-.11h0v0a5.69,5.69,0,0,0,.08-.91v-.06a9.69,9.69,0,0,0-1.08-.34A5.77,5.77,0,0,0,96.67,85.17Z"/></g><g class="cls-2"><path class="cls-3" d="M58.13,84.16,58,85.57a17.54,17.54,0,0,1,18.35-3.76.64.64,0,0,0,.43,0,17.13,17.13,0,0,1,13.33.43,17.87,17.87,0,0,1,2.72,1.58,16.88,16.88,0,0,0-3.67-2.29,17.09,17.09,0,0,0-13.33-.43.64.64,0,0,1-.43,0,17.57,17.57,0,0,0-17.55,3l.3,0Z"/></g><g class="cls-2"><path class="cls-3" d="M93.5,84.42l0,0,0,0Z"/></g><g class="cls-2"><path class="cls-3" d="M52.93,91.1a.62.62,0,0,1-.12.19.69.69,0,0,0,0,.1.59.59,0,1,0,1.11.42A17,17,0,0,1,58,85.57l.15-1.41h0l-.3,0A17,17,0,0,0,52.93,91.1Z"/></g><g class="cls-2"><path class="cls-3" d="M51.28,97l0,.18a.6.6,0,0,0,.49.68h.1a.58.58,0,0,0,.58-.5c.1-.57.2-1.15.33-1.72a.59.59,0,0,0-1-.56c-.11.52-.21,1-.3,1.57A.58.58,0,0,1,51.28,97Z"/></g><g class="cls-2"><path class="cls-3" d="M46.39,117.65a7.7,7.7,0,0,0-3.17,2,4.48,4.48,0,0,0-.36.4,3.39,3.39,0,0,0-.33.42,7.55,7.55,0,0,0-.58.89l0,.05-.06.09a.6.6,0,0,0,.24.81.59.59,0,0,0,.8-.24,8.1,8.1,0,0,1,1.27-1.7,7.75,7.75,0,0,1,9.8-1.08l-.44-.35A7.76,7.76,0,0,0,46.39,117.65Z"/></g><g class="cls-2"><path class="cls-3" d="M47,100.61l.66-5.28-1.15.85L46,99.9a10.33,10.33,0,0,0,4.57,9.64A10.34,10.34,0,0,1,47,100.61Z"/></g><g class="cls-2"><path class="cls-3" d="M56.39,119.89a.59.59,0,0,1,0,.84h0l.12.14.51-.63a18.58,18.58,0,0,0-1.48-1.32,40.28,40.28,0,0,1-2.33-7.43s0-.06,0-.09c-.29-.09-.58-.19-.86-.3a39.9,39.9,0,0,0,2.26,7.1A18.41,18.41,0,0,1,56.39,119.89Z"/></g><g class="cls-2"><path class="cls-3" d="M56.36,120.73a.55.55,0,0,1-.4.16h0l.27.28.25-.3Z"/></g><g class="cls-2"><path class="cls-3" d="M57.34,120.6l-.35-.36-.51.63c.2.23.4.47.59.71a.62.62,0,0,0,.25-.14A.59.59,0,0,0,57.34,120.6Z"/></g><g class="cls-2"><path class="cls-3" d="M56.23,121.17a3,3,0,0,1,.25.25.61.61,0,0,0,.43.18l.16,0c-.19-.24-.39-.48-.59-.71Z"/></g><g class="cls-2"><path class="cls-3" d="M52.3,105.62a29.21,29.21,0,0,1-.21-5,.59.59,0,0,0-.56-.62.63.63,0,0,0-.39.13,28.72,28.72,0,0,0,.21,4.73l.34,2.65c.13,1,.3,2,.5,3a.6.6,0,0,1,.05.24l.06.27c.28.11.57.21.86.3-.21-1-.39-2.08-.52-3.13Z"/></g><g class="cls-2"><path class="cls-3" d="M53.64,80.41h0l.27.28a.49.49,0,0,1,0-.12l-.1-.08-.3-.2h0A.8.8,0,0,1,53.64,80.41Z"/></g><g class="cls-2"><path class="cls-3" d="M37,97.05l-3.73,3.26.33-.06.52-.09.59-.13.26,0,.62-.15L38,97.77c3.57-3.12,6.74-10.8,7.93-14a4.94,4.94,0,0,1,3-2.93,4.67,4.67,0,0,1,3.85.36L52.55,81l-.06,0a3.15,3.15,0,0,0-.29-.22L52,80.59a4.67,4.67,0,0,0-4-.42,4.93,4.93,0,0,0-3,2.92,62.66,62.66,0,0,1-4.43,9.45,23.81,23.81,0,0,1-2.18,3.15l0,0-.21.25A12.45,12.45,0,0,1,37,97.05Z"/></g><g class="cls-2"><path class="cls-3" d="M47.68,123.2c1.37-.65,2.22-1.73,1.9-2.41s-1.7-.71-3.08-.06-2.22,1.73-1.9,2.41S46.3,123.85,47.68,123.2Z"/></g><path class="cls-12" d="M106.54,82.88a5.53,5.53,0,0,0-5.14-3.56,5.16,5.16,0,0,0-2.72.77l-.27.17h0a5.46,5.46,0,0,0-2.33,4A11.24,11.24,0,0,0,94,84.1a18.17,18.17,0,0,0-12.22-4.74,17.76,17.76,0,0,0-6.4,1.19A17.71,17.71,0,0,0,56.92,84.1a11.58,11.58,0,0,0-2.05.21,5.43,5.43,0,0,0-2.33-4h0l-.27-.17a5.16,5.16,0,0,0-2.72-.77,5.51,5.51,0,0,0-5.13,3.56c-1.19,3.14-4.31,10.7-7.77,13.73l-5.23,4.57.63-.08a31.27,31.27,0,0,0,13.87-5.27l-.5,4a10.93,10.93,0,0,0,6.21,11,40.71,40.71,0,0,0,2.45,7.76l-.19-.14h0a8.35,8.35,0,0,0-13.13,4.23h0a18.23,18.23,0,0,0,3.39,16.78l10,12.16a7,7,0,0,1,1.28,2.34,7.24,7.24,0,0,1,.32,2.36l-.11,3.14A1.9,1.9,0,0,0,57.52,161a1.84,1.84,0,0,0,1.49-.74,1.91,1.91,0,0,1,1.5-.73,1.68,1.68,0,0,1,.54.08,2.15,2.15,0,0,0,.55.08A1.9,1.9,0,0,0,63.3,157l-1.93-2.49a7.17,7.17,0,0,1-1.11-2.1h0a7,7,0,0,1-.34-2.65l1-15.4A11.06,11.06,0,0,1,64.39,133l6.44,5.77a7,7,0,0,0,9.29,0L86.56,133c.33-.29.65-.6,1-.9a1,1,0,0,0,0,.3,1.52,1.52,0,0,0,.55,1.14,1.29,1.29,0,0,0,.84.34,1.24,1.24,0,0,0,.84-.34,1.85,1.85,0,0,0,.21-.33l0,0,0,.9,1,15.7a7,7,0,0,1-.34,2.65h0a7.17,7.17,0,0,1-1.11,2.1L87.65,157a1.91,1.91,0,0,0,1.7,2.73,2.15,2.15,0,0,0,.55-.08,1.68,1.68,0,0,1,.54-.08,1.9,1.9,0,0,1,1.5.73h0a1.84,1.84,0,0,0,1.49.74,1.9,1.9,0,0,0,1.88-1.57l-.11-3.14a7.25,7.25,0,0,1,.33-2.36h0a7,7,0,0,1,1.27-2.34l10-12.16a18.26,18.26,0,0,0,3.4-16.78h0a8.37,8.37,0,0,0-13.14-4.23h0l-.18.14a41.41,41.41,0,0,0,2.44-7.76,10.93,10.93,0,0,0,6.21-11l-.5-4a31.25,31.25,0,0,0,13.87,5.26l.63.08-5.23-4.57C110.84,93.58,107.72,86,106.54,82.88ZM90.14,130.4a1.38,1.38,0,0,0-.45-.08,1,1,0,0,0-.57.17l-.13.09c.48-.5.94-1,1.39-1.54C90.28,129.49,90.21,130,90.14,130.4Z"/><path class="cls-13" d="M51.35,94.23a.6.6,0,0,0-.71.45c-.13.59-.24,1.19-.34,1.79a.59.59,0,0,0,.49.68h.1a.58.58,0,0,0,.58-.5c.1-.58.2-1.16.33-1.72A.6.6,0,0,0,51.35,94.23Z"/><path class="cls-13" d="M75.46,87.82a.6.6,0,0,0,.6-.6v-2a.6.6,0,1,0-1.19,0v2A.6.6,0,0,0,75.46,87.82Z"/><path class="cls-13" d="M120.56,100l-5.23-4.56c-3.3-2.88-6.45-10.76-7.34-13.11a7.09,7.09,0,0,0-6.59-4.57,6.78,6.78,0,0,0-3.53,1l-.34.22a7,7,0,0,0-2.68,3.6l-.26,0a19.64,19.64,0,0,0-19.23-3.67A19.39,19.39,0,0,0,69,77.81,19.18,19.18,0,0,0,56.3,82.57h-.2A7,7,0,0,0,53.42,79l-.34-.22a6.75,6.75,0,0,0-3.53-1A7.1,7.1,0,0,0,43,82.33c-.89,2.35-4,10.23-7.33,13.11L30.4,100a1.56,1.56,0,0,0,1,2.73h.19l.63-.08A32.89,32.89,0,0,0,44,98.86l-.1.77v0a12.48,12.48,0,0,0,6.4,12.19c.27,1.21.6,2.4,1,3.58a9.91,9.91,0,0,0-12,6.77h0A19.77,19.77,0,0,0,43,140.43l10,12.16a5.29,5.29,0,0,1,1,1.82,5.43,5.43,0,0,1,.25,1.83l-.11,3.15a1.84,1.84,0,0,0,0,.33,3.45,3.45,0,0,0,6.13,1.51.33.33,0,0,1,.27-.14l.1,0a3.7,3.7,0,0,0,1,.14,3.45,3.45,0,0,0,3.1-4.95,1.17,1.17,0,0,0-.17-.28l-1.92-2.49a5.34,5.34,0,0,1-.87-1.63,5.42,5.42,0,0,1-.26-2.07l.94-14.56a9.4,9.4,0,0,1,1.56-.6l5.81,5.21a8.53,8.53,0,0,0,11.37,0L87,134.64l.09.07a2.88,2.88,0,0,0,1.45.66l.94,14.46a5.55,5.55,0,0,1-.27,2.06,5.25,5.25,0,0,1-.86,1.64L86.42,156a1.61,1.61,0,0,0-.17.28,3.46,3.46,0,0,0,3.1,4.95,3.7,3.7,0,0,0,1-.14l.1,0a.32.32,0,0,1,.27.14,3.45,3.45,0,0,0,6.13-1.51,1.84,1.84,0,0,0,0-.33l-.11-3.15a5.43,5.43,0,0,1,.25-1.83,5.29,5.29,0,0,1,1-1.82l10-12.16a19.77,19.77,0,0,0,3.69-18.21h0a9.93,9.93,0,0,0-6.46-6.61,9.79,9.79,0,0,0-5.51-.16c.37-1.18.7-2.37,1-3.58a12.48,12.48,0,0,0,6.4-12.19v0l-.1-.77a32.89,32.89,0,0,0,11.73,3.78l.63.08h.19a1.54,1.54,0,0,0,1.42-.92A1.57,1.57,0,0,0,120.56,100ZM62.79,157.28a1.28,1.28,0,0,1-.21,1.36,1.26,1.26,0,0,1-1.36.41,2.47,2.47,0,0,0-2.68.86,1.3,1.3,0,0,1-2.3-.51l.1-3.08a7.82,7.82,0,0,0-.19-2l3.75-1.21a7.8,7.8,0,0,0,1,1.72Zm-1.23-24a18.78,18.78,0,0,0-.09-2.37c.56.6,1.14,1.18,1.73,1.74A12.16,12.16,0,0,0,61.56,133.29Zm27.83,0a11.66,11.66,0,0,0-1.64-.63c.6-.56,1.17-1.14,1.73-1.74A18.71,18.71,0,0,0,89.39,133.29Zm5.22,23,.11,3.08a1.31,1.31,0,0,1-2.31.51,2.49,2.49,0,0,0-2-1,2.57,2.57,0,0,0-.72.11,1.31,1.31,0,0,1-1.57-1.77l1.89-2.44a7.8,7.8,0,0,0,1-1.72l3.75,1.21A7.82,7.82,0,0,0,94.61,156.32Zm10-38.67a7.77,7.77,0,0,1,5.07,5.18,17.62,17.62,0,0,1-3.29,16.23l-10,12.16a7.81,7.81,0,0,0-1.18,2L91.42,152a7.71,7.71,0,0,0,.2-2.3l-1-15.7a17.62,17.62,0,0,1,6.81-15.09A7.76,7.76,0,0,1,104.56,117.65Zm-5-12.74-.33,2.65c-.14,1-.31,2.07-.52,3.09h0a40.8,40.8,0,0,1-2.36,7.55,18.79,18.79,0,0,0-6.56,10.57,40.49,40.49,0,0,1-3.67,3.74l-6.44,5.77a6.35,6.35,0,0,1-8.49,0l-6.43-5.76h0a39.36,39.36,0,0,1-3.67-3.75,18.65,18.65,0,0,0-1.52-4.28.59.59,0,0,0-1.06.52A17.82,17.82,0,0,1,60,129a.59.59,0,0,0,0,.23,17.51,17.51,0,0,1,.33,4.74l-1,15.7a7.71,7.71,0,0,0,.2,2.3l-3.74,1.21a7.53,7.53,0,0,0-1.18-2l-10-12.16a17.66,17.66,0,0,1-4-11.74.6.6,0,0,0-.56-.61,17.76,17.76,0,0,1,.72-4h0a8.3,8.3,0,0,1,1.64-3,.59.59,0,0,0,.82,0,7.77,7.77,0,0,1,10.31-.71,17.2,17.2,0,0,1,2,1.81.61.61,0,0,0,.43.18.57.57,0,0,0,.41-.16.59.59,0,0,0,0-.84,18.41,18.41,0,0,0-1.83-1.69,41.22,41.22,0,0,1-2.32-7.37.6.6,0,0,0-.05-.24c-.2-1-.37-2-.5-3l-.34-2.65a29.26,29.26,0,0,1-.21-5,.59.59,0,1,0-1.18,0,29.56,29.56,0,0,0,.21,5.15l.34,2.65c.08.66.19,1.32.3,2A10.34,10.34,0,0,1,46,99.9l.46-3.72c.61-.43,1.2-.87,1.78-1.34a.6.6,0,0,0,.09-.83.59.59,0,0,0-.84-.09c-.71.57-1.44,1.1-2.18,1.61l-.33.21-.42.27-.37.24a1.18,1.18,0,0,0-.19.11,30.91,30.91,0,0,1-7.44,3.22h0l-.73.2-.15,0L35,100l-.26,0-.59.13-.52.09-.33.06L37,97.06c3.34-2.93,6.34-9.86,7.68-13.32.09-.23.18-.45.25-.65a4.93,4.93,0,0,1,3-2.92,4.67,4.67,0,0,1,4,.42l.24.16a3.15,3.15,0,0,1,.29.22l.06,0,.27.24h0a3.45,3.45,0,0,1,.26.28h0a5,5,0,0,1,1.18,3.6h0c0,.12,0,.25,0,.38v0c0,.11,0,.22-.07.34v0a2.26,2.26,0,0,1-.11.37,1,1,0,0,0,0,.24,18.75,18.75,0,0,0-2.19,4.13.59.59,0,1,0,1.11.42A17.06,17.06,0,0,1,62,81.51a17.33,17.33,0,0,1,13.39-.41.64.64,0,0,0,.43,0A17.14,17.14,0,0,1,98.13,91.39,29.31,29.31,0,0,1,99.6,104.91Zm5.77-9.56a30.79,30.79,0,0,1-2.8-2.17.59.59,0,0,0-.83.06.6.6,0,0,0,.05.84,34,34,0,0,0,2.69,2.09l.46,3.71a10.37,10.37,0,0,1-4.8,9.81q.18-1,.3-2l.34-2.65A30.6,30.6,0,0,0,99.25,91a18.69,18.69,0,0,0-2.89-5.24.6.6,0,0,0,.31-.58,4.89,4.89,0,0,1,2.08-4.42l.24-.16a4.69,4.69,0,0,1,4-.42,4.91,4.91,0,0,1,3,2.92c1.2,3.16,4.36,10.85,7.93,14l3.73,3.25A30.83,30.83,0,0,1,105.37,95.35Z"/><path class="cls-8" d="M59.59,122.53l.68-4.12.33-.19c3.64-2.23,6.69-4.24,9.06-6a20.88,20.88,0,0,0,4.48-4.06,4.76,4.76,0,0,0,1-2.69,3.4,3.4,0,0,0-1.15-2.65A4.12,4.12,0,0,0,71,101.75a5,5,0,0,0-2.65.83c-.59.36-1.48,1.31-2.41,3.78l-.29.79-3.77-1.42.26-.77c1.61-4.74,4.62-7.14,8.92-7.14a8.58,8.58,0,0,1,6,2.24,7.25,7.25,0,0,1,2.49,5.53c0,2.57-1.22,4.91-3.63,7a68,68,0,0,1-8.83,5.92H77.84l-.67,4.06Z"/><path d="M76.46,121.69H60.58l.45-2.76q5.53-3.37,9.13-6a21.76,21.76,0,0,0,4.68-4.25,5.65,5.65,0,0,0,1.08-3.17,4.24,4.24,0,0,0-1.41-3.27A5,5,0,0,0,71,100.92a5.77,5.77,0,0,0-3.09.94q-1.53,1-2.75,4.21l-2.23-.84q2.25-6.57,8.13-6.57a7.76,7.76,0,0,1,5.43,2,6.38,6.38,0,0,1,2.21,4.91c0,2.33-1.11,4.43-3.33,6.32A80.9,80.9,0,0,1,64,119.31H76.86Z"/><path class="cls-14" d="M76.46,121.69H60.58l.45-2.76q5.53-3.37,9.13-6a21.76,21.76,0,0,0,4.68-4.25,5.65,5.65,0,0,0,1.08-3.17,4.24,4.24,0,0,0-1.41-3.27A5,5,0,0,0,71,100.92a5.77,5.77,0,0,0-3.09.94q-1.53,1-2.75,4.21l-2.23-.84q2.25-6.57,8.13-6.57a7.76,7.76,0,0,1,5.43,2,6.38,6.38,0,0,1,2.21,4.91c0,2.33-1.11,4.43-3.33,6.32A80.9,80.9,0,0,1,64,119.31H76.86Z"/><path class="cls-8" d="M78.23,116.81l.08-.91a29.65,29.65,0,0,1,9.57-19.27H76.28l1.27-4.09H94.42L93.9,95.6l-.2.19c-4.09,4-6.87,7.53-8.27,10.62A28.6,28.6,0,0,0,83,116l-.06.78Z"/><path d="M82.13,116h-3q1-11.76,10.91-20.18H77.41l.76-2.42H93.43l-.31,1.82q-6.28,6.07-8.45,10.88A29.07,29.07,0,0,0,82.13,116Z"/><path class="cls-14" d="M82.13,116h-3q1-11.76,10.91-20.18H77.41l.76-2.42H93.43l-.31,1.82q-6.28,6.07-8.45,10.88A29.07,29.07,0,0,0,82.13,116Z"/></g></g></svg>